<?xml version="1.0" encoding="UTF-8"?>
<svg id="Capa_1" data-name="Capa 1" xmlns="http://www.w3.org/2000/svg" viewBox="0 0 357 451.9">
  <defs>
    <style>
      .cls-1 {
        fill: #245f8d;
      }

      .cls-2 {
        fill: #282e69;
      }

      .cls-3 {
        fill: #235f8c;
      }
    </style>
  </defs>
  <polygon class="cls-1" points="0 451.9 36.9 451.9 36.9 393.3 0 407.1 0 451.9"/>
  <polygon class="cls-3" points="52.5 451.9 89.4 451.9 89.4 373.6 52.5 387.4 52.5 451.9"/>
  <path class="cls-2" d="M311.4,59.4c-2.2-2.4-4.4-4.8-6.7-7.1-12.1-12.1-26-22.5-41.1-30.7-8.2-4.5-16.9-8.3-25.8-11.4-4.8-1.7-9.7-3.2-14.7-4.5-8.6-2.2-17.4-3.8-26.4-4.7-6-.6-12.1-.9-18.3-.9s-6.1,0-9.2.2c-1.2,0-2.4.2-3.5.3-1.8.1-3.7.2-5.5.4-1.7.2-3.3.4-4.9.6-1.3.2-2.7.3-4,.5-1.9.3-3.8.7-5.7,1-1,.2-2.1.3-3.1.6-2.1.4-4.2.9-6.3,1.4-.8.2-1.6.3-2.4.5-2.3.6-4.6,1.3-6.9,1.9-.5.2-1.1.3-1.6.5-2.4.8-4.8,1.6-7.2,2.4-.4.1-.7.2-1.1.4-2.5.9-4.9,1.9-7.4,2.9-.2,0-.5.2-.7.3-2.6,1.1-5.1,2.2-7.6,3.4-.1,0-.2,0-.3.1-25.4,12.2-47.4,30.2-64.3,52.3h0c-1.3,1.7-2.6,3.5-3.9,5.3-.2.3-.4.6-.6.9-1.2,1.7-2.4,3.4-3.5,5.2-.2.3-.4.6-.6.9-4.7,7.4-8.9,15.1-12.6,23.2-.3.7-.6,1.3-.9,2-.7,1.5-1.3,3.1-2,4.7-.4.9-.7,1.8-1.1,2.8-.6,1.5-1.1,3-1.6,4.4-.4,1.1-.7,2.2-1.1,3.3-.5,1.4-.9,2.8-1.4,4.2-.4,1.4-.8,2.8-1.2,4.2-.5,1.7-.9,3.5-1.4,5.2-.5,1.9-.9,3.8-1.3,5.8-.2,1.1-.4,2.2-.6,3.3-.3,1.6-.6,3.3-.9,4.9-.2,1.1-.3,2.2-.5,3.4-.2,1.7-.5,3.4-.6,5.1-.1,1.1-.2,2.2-.3,3.2-.2,1.9-.3,3.7-.4,5.6,0,.9-.1,1.8-.2,2.8-.1,2.8-.2,5.6-.2,8.5s0,5.2.2,7.7h-.2v170.8h0v33.4l36.9-13.8,15.6-5.8,36.9-13.8h89.1s0,0,0,0,0,0,0,0h7.6v-.2c2.9-.1,5.7-.3,8.5-.6.1,0,.3,0,.4,0,2.7-.3,5.4-.6,8.1-.9.2,0,.5,0,.7,0,2.6-.4,5.2-.8,7.7-1.3.3,0,.6-.1.9-.2,2.5-.5,4.9-1,7.4-1.6.4,0,.8-.2,1.1-.3,2.4-.6,4.7-1.2,7.1-1.9.4-.1.9-.2,1.3-.4,2.3-.7,4.5-1.4,6.7-2.2.5-.2,1-.3,1.5-.5,2.2-.8,4.3-1.6,6.4-2.4.5-.2,1.1-.4,1.6-.6,2.1-.8,4.1-1.7,6.1-2.6.6-.3,1.2-.5,1.7-.8,2-.9,3.9-1.9,5.8-2.8.6-.3,1.2-.6,1.8-.9,1.9-1,3.7-2,5.5-3,.6-.4,1.3-.7,1.9-1.1,1.8-1,3.5-2.1,5.3-3.2.7-.4,1.3-.8,2-1.3,1.7-1.1,3.3-2.2,5-3.4.7-.5,1.4-1,2.1-1.5,1.6-1.1,3.1-2.3,4.7-3.5.7-.5,1.4-1.1,2.1-1.7,1.5-1.2,2.9-2.4,4.4-3.6.7-.6,1.4-1.2,2.1-1.8,1.4-1.2,2.8-2.5,4.1-3.7.7-.7,1.4-1.4,2.2-2.1,1.3-1.2,2.6-2.5,3.8-3.8.7-.7,1.4-1.5,2.1-2.3,1.2-1.3,2.4-2.6,3.6-3.9.7-.8,1.4-1.6,2.1-2.5,1.1-1.3,2.2-2.6,3.3-3.9.7-.9,1.4-1.8,2.1-2.7,1-1.3,2-2.6,3-4,.7-.9,1.4-1.9,2-2.9.9-1.3,1.9-2.7,2.8-4,.7-1,1.3-2.1,2-3.1.9-1.3,1.7-2.7,2.5-4.1.6-1.1,1.3-2.2,1.9-3.3.8-1.4,1.5-2.7,2.3-4.1.6-1.2,1.2-2.3,1.8-3.5.7-1.4,1.4-2.7,2-4.1.6-1.2,1.1-2.5,1.7-3.7.6-1.4,1.2-2.7,1.8-4.1.5-1.3,1-2.6,1.5-3.9.5-1.4,1.1-2.7,1.6-4.1.5-1.4.9-2.7,1.4-4.1.5-1.4.9-2.7,1.3-4.1.4-1.4.8-2.9,1.2-4.3.4-1.3.8-2.7,1.1-4,.4-1.5.7-3,1-4.5.3-1.3.6-2.6.9-4,.3-1.6.6-3.2.9-4.8.2-1.3.5-2.6.7-3.9.3-1.7.4-3.4.7-5.2.1-1.2.3-2.4.5-3.7.2-1.9.3-3.9.4-5.9,0-1,.2-2,.2-3.1.1-2.9.2-5.9.2-8.9,0,0,0-.1,0-.2,0-45.8-17.3-87.6-45.6-119.2ZM52.5,304.9h0s0,0,0,0h0ZM178.5,267.6c-49.2,0-89.1-39.9-89.1-89.1s39.9-89.1,89.1-89.1,89.1,39.9,89.1,89.1-39.9,89.1-89.1,89.1Z"/>
</svg>